<?xml version="1.0" standalone="yes"?>
<svg width="640" height="358">
<path style="fill:#847467; stroke:none;" d="M0 0L0 49L0.637346 73L28 127L45 127C46.532 133.359 49.2855 141.628 56 144L56 160L50 158L49 158L48 166L40 166L46 174L46 170L50 170L50 173L57 173C57.5721 167.881 60.257 163.708 65 168L72 164L74 159L72 157L72 156L74 152L80 150L80 156C81.6183 155.994 83.3227 156.105 84.9306 155.867C95.046 154.365 85.7001 144.882 88.1605 140.394C90.332 136.433 97.2822 135.933 100 131L114 133L122 128L122 124L126 125L124 127L124 128L125 131L132 130L130 126L141 125C142.806 130.137 154.629 133.053 159 130L160 136L162 134L163 134L169.606 135.537L191.134 140.824L200.866 143.153L216 135.296L228 138C228.001 142.659 230.431 149.475 226 152L226 153L236 156L237 151L233 152L231 144L234 144L234 133C227.358 129.374 223.464 117.864 229 112L232 85L235 86L236 58L233 58L233 49L234 49L234 53L235 53L238 33L218 41L220 46L208 49L208 47C193.349 50.7923 186.239 57.7343 197 72C190.637 73.7983 193.822 80.511 188.656 83.142C178.561 88.283 170.962 78.9929 162 78L160 68L149 63L172 67L169 65L169 64L175 62L174 67L188 65L189 61L182 48L182 47L184 44L178 34L154 36L154 30L150 30L152 33C147.51 38.9175 144.798 48.6115 146 56L100 54C97.4865 64.6694 95.3231 72.3681 110 73L113 77L112 92L96 90L98 84L67 82L71 87C62.65 87 51.964 90.581 44.0401 88.6968C36.3381 86.8653 31.2183 71.8911 31 65L36 65L36 64L33 64L33 63C41.6386 62.8971 41.9454 57.2662 44 50L27 48L28 42L32 43L32 34L86 34C90.4814 34 101.88 36.228 103 31L102 31C96.0976 35.4717 83.2283 33 76 33L8 33L8 7L102 7L102 6L48 6L48 0L0 0z"/>
<path style="fill:#827974; stroke:none;" d="M48 0L48 6L102 6L103 34L32 34L32 43L28 42L27 48L44 50C41.3492 56.6288 41.3517 62.7267 33 63L33 64L36 64L36 65L31 65C31.0441 68.7715 31.6846 71.5454 33.2253 74.9992C34.9792 78.9311 36.9381 84.9262 40.5679 87.5671C47.1052 92.3235 63.1602 87 71 87L67 82L98 84L96 90L112 92L113 77L110 73C95.3192 71.83 98.5583 64.5683 100 54L146 56C145.575 47.9702 148.235 40.0404 152 33L150 30L154 30L154 36L178 34L184 44L182 47L182 48L189 61L188 65L174 67L175 62L169 64L169 65L172 67L149 63C151.66 66.8994 155.425 67.8649 160 68L162 78C169.777 79.5313 181.6 89.7417 190.106 82.6821C193.951 79.4912 191.527 74.5206 197 72C188.778 56.5147 192.423 52.2836 208 47L208 49L220 46L218 41C222.805 41.8626 232.383 37.4903 236.227 34.3657C245.702 26.663 247.827 15.9104 260.576 10.4229C271.074 5.90399 287.582 11.7087 295 0L48 0z"/>
<path style="fill:#ba7f5d; stroke:none;" d="M292 3L292 4L295 5C285.639 14.0298 301.831 21.3792 306.646 26.4591C310.06 30.0609 310.471 35.7881 314.299 38.9822C317.969 42.0438 322.623 41.5298 327 42.3742C338.458 44.5845 350.238 49.4131 362 46L361 43L365 38L377 36L379 40L385.957 61L389.942 111L387 128C381.87 124.674 379.549 106.301 379 100L376 100L378 51C356.079 51.4525 365.863 71.263 354.411 82.2616C349.996 86.502 339.616 86.7556 334 89.659C331.858 90.7665 329.741 92.7882 327.13 92.1096C322.36 90.8702 323.152 84.0198 317.942 83.1481C310.821 81.9568 305.118 87.0539 298 85C298.007 93.8651 300.387 94.9943 309 95C310.89 104.515 288.607 114.539 282 108L278 109L277 121C272.476 116.682 273 111.896 273 106L272 106C272 111.897 272.254 118.208 270.701 123.961C269.495 128.43 265.721 130.868 266.519 135.961C267.832 144.349 277.586 152.708 283.022 158.754C293.35 170.24 299.251 182.485 314 190L325 186.285L353 182L346 211L331 204C330.904 195.935 327.166 196.001 320 196L320 197L330 198L330 202L325 202C326.552 211.853 335.98 212 344 212C343.943 218.247 342.387 236.03 337 239L334 236L335 250C337.839 255.15 342.003 265.04 348 256L344 256L343 250L348 254L349 254L352 251L369.255 207.09L361 191L369 168C362.86 164.913 360.871 156.434 360 150L359 150L348 150L351 113L350 113L350 117L349 117L344 97L354.772 95.9722L372 67C372 87.8651 373.016 108.736 377.39 129C379.147 137.138 384.969 142.337 385 151C392.204 146.559 397.396 144.024 406 144L406 140L405 140L405 143L400 143C399.957 139.472 400.103 132.609 396 132C396 114.94 390.976 98.8225 389.174 82C387.701 68.2556 390.203 54.9624 387.745 41C386.289 32.7313 375.785 22.5034 367 27L368 29C363.49 31.2552 360.919 33.983 360 39L344.999 42.7091L330 42L330 38C314.898 34.0567 310.115 13.721 310 0L292 3z"/>
<path style="fill:#8c5745; stroke:none;" d="M310 0C310.039 14.1523 317.797 46.3142 338.826 38.2971C343.205 36.6274 343.289 32.5086 345.889 29.2978C349.853 24.4018 358.846 20.1956 365 20L365 19L351 10C355.733 8.07819 358.032 4.98914 359 0C355.894 2.36655 350.225 8.21664 349.329 12.0903C348.443 15.9174 351.014 20.1165 348.254 23.5262C340.577 33.0114 322.264 39.505 318 23C332.942 18.7273 322.133 0.0093689 310 0z"/>
<path style="fill:#281310; stroke:none;" d="M319 0L326 12C336.59 12 351.612 12.8892 355 0L319 0z"/>
<path style="fill:#71493f; stroke:none;" d="M355 0C352.798 5.24179 347.734 8.05835 345.322 13.0146C343.697 16.3525 345.284 20.5685 343.103 23.6057C341.278 26.1454 335.699 27.9328 334.345 23.902C333.509 21.4141 337.76 17.098 338 14C331.747 13.9952 328.325 13.6686 325 8L324 8C325.146 14.4612 324.423 20.0096 318 23C320.573 40.7157 340.635 32.6146 348.258 24.2354C351.473 20.7003 348.333 16.0872 349.628 12.0903C351.207 7.21945 356.155 5.46252 357 0L355 0z"/>
<path style="fill:#939280; stroke:none;" d="M359 0L351 10C355.417 15.595 362.865 19.6338 370 20L368 18L368 17C397.09 29.2379 393.059 57.9144 394.019 84C394.421 94.9528 397 105.628 397 117L398 117L397.83 93L397.293 79.1435L419 58C430.217 58 436.09 54.9134 446 51L442 48C444.1 41.4227 447.537 40.8745 454 41L454 40L450 40L450 39C453.821 39 457.756 37.9772 457 41C463.454 40.5997 469.069 41.0767 468 33L473 33L472 30C473.714 29.0491 474.353 27.9194 472 28C476.755 21.5655 484.425 20.005 492 20L490 23L493 28C503.381 22.2024 514.651 20.8231 525.039 15.0702C529.227 12.7511 533.101 13.3928 534 8L536 11L541 11C539.824 7.45834 537.593 6.49097 534 6L534 0L359 0z"/>
<path style="fill:#8b8471; stroke:none;" d="M534 0L534 6L541 11L534 8L521 18L560 26L570 32.0046L595 50C603.66 34.4425 618.943 17.7513 622 0L534 0z"/>
<path style="fill:#a15b1f; stroke:none;" d="M622 0L594.887 50L597.894 63L601 90L602 90C604.342 77.5707 602.781 68.0118 599 56C611.752 60.3156 608.992 51.1333 616.005 44.0671C618.32 41.7353 621.784 42.3644 623.258 38.9267C625.62 33.4141 623.72 28.0482 628 23C628.106 17.4459 635.279 15.9643 640 15L640 0L622 0z"/>
<path style="fill:#d4977a; stroke:none;" d="M258 132L257 129L262 129L269.741 107.83L270 52C281.482 53.8578 281.411 70.5258 287.804 77.5262C291.02 81.0482 298.05 86.4006 303 86.0795C308.104 85.7483 312.67 81.9155 317.942 83.3187C322.989 84.6619 322.456 92.4404 328.054 92.6235C334.122 92.822 342.772 86.1901 348.999 84.6536C351.34 84.076 354.124 83.8336 355.486 81.5671C363.1 68.895 358.968 51.8194 378 51L376 100L379 100C379.088 105.208 382.499 127.035 387 128L389.981 111L385.957 60L379 40L377 36L365 38L361 43L362 46C350.296 47.8878 340.344 45.2368 329 42.5949C324.237 41.4855 319.279 42.1311 315.143 38.9822C310.769 35.6515 310.494 29.511 306.646 25.7253C299.511 18.7067 289.171 16.0645 295 4C288.374 4.28528 283.31 7.54425 277 8.67053C264.846 10.84 248.837 9.15421 243.183 24C241.665 27.9856 243.147 33.7467 242.961 38C242.422 50.3058 242.5 62.6741 241.961 75C241.293 90.2536 241.156 102.305 245.965 117C248.079 123.463 250.51 130.768 258 132z"/>
<path style="fill:#716863; stroke:none;" d="M8 7L8 33L102 33L102 7L8 7z"/>
<path style="fill:#623a2e; stroke:none;" d="M328 12L328 14L338 14C337.438 17.5562 334.518 19.0963 333.747 22.24C332.387 27.7886 340.74 27.1665 343.138 24.3472C346.105 20.8602 345.451 13.4719 348 9L328 12z"/>
<path style="fill:#887a77; stroke:none;" d="M29 16C31.2166 17.8799 31.4482 17.3712 33 15L36 18L36 11L35 11L35 15L34 15L32 11L29 13C20.8244 7.08365 23.9617 23.4776 29 16z"/>
<path style="fill:#908782; stroke:none;" d="M54 11L52 18L57 17L56 11L54 11z"/>
<path style="fill:#8f8681; stroke:none;" d="M59 11L59 18L60 18L61 15L64 18L64 11L63 11L63 15L62 15L59 11z"/>
<path style="fill:#928d89; stroke:none;" d="M82 11L82 18L83 18L87 15L82 11z"/>
<path style="fill:#e2a47f; stroke:none;" d="M256 116C264.674 114.091 266.897 106.256 266.996 98C267.203 80.6743 266.827 63.1922 269 46C275.283 46.8404 279.177 50.7206 280 57L300.17 75.5131L314 70L313 63L316 64L319 57L320 54C318.347 41.8763 308.107 31.5648 296 30C301.027 13.433 265.646 8.44342 255.004 15.51C238.857 26.2314 249.068 53.3222 247.695 69.0038C246.799 79.24 241.719 89.5783 244.723 99.9854C246.516 106.196 251.942 111.249 256 116z"/>
<path style="fill:#ad7236; stroke:none;" d="M638 14C633.952 16.996 627.772 17.1779 628 23C623.046 26.8683 625.256 32.7919 623.272 37.9661C621.744 41.9528 618.497 41.088 615.911 43.5741C608.67 50.535 611.785 59.2978 599 56C600.405 62.8229 603.736 69.9688 603.817 77C603.9 84.1869 599.732 88.7166 598.249 95.1736C594.715 110.57 594 125.242 594 141C594 150.217 588.111 174.465 606.581 165.397C612.059 162.707 608.746 153.166 613 149L612 168L640 169L640 56C640 45.6454 644.28 22.2894 638 14z"/>
<path style="fill:#a57261; stroke:none;" d="M368 17L368 18L370 20C361.031 20 353.57 21.6465 346.572 27.8835C339.714 33.995 341.085 38.9682 330 39L330 42L345.996 42.7099L360 39L368 29L367 27C376.489 23.6749 386.199 33.2186 387.745 42C390.204 55.9718 387.696 69.2099 389.174 83C390.937 99.4626 395.998 115.313 396 132C399.723 132 400 139.801 400 143L405 143C404.539 132.944 398.389 124.064 397.184 114C396.02 104.276 394.724 93.5852 394.054 84C392.412 60.5035 398.644 24.9497 368 17z"/>
<path style="fill:#553d33; stroke:none;" d="M497 28L502 29C498.34 33.1797 492.318 34.6741 489.023 38.5633C486.775 41.2166 487.013 45.3315 484.927 48.2855C479.179 56.427 472.19 61.7795 470 72C474.596 72.6118 479.88 72.1768 480 78L492 73L486 96L496 87L496 96L497 96L501 92L498 98L498 99L501 105L510 100L508 111L509 111L515 105L508.313 131L509 147L510 147C516.083 134.542 518.998 119.024 528.043 108.147C533.327 101.794 543.85 106.18 547 97L537 95C543.192 89.2692 548.467 90.7884 556 89L556 87C551.501 84.9549 550.161 82.9182 550 78L541 82L543 62L534 67L535 63L530 61L531 64L527 66L528 57L520 63L511.046 56.7006L512 46L507 47C508.349 40.3703 514.123 35.2409 521 36L519 24L543 21C531.319 15.2494 505.436 17.5252 497 28z"/>
<path style="fill:#9fa38a; stroke:none;" d="M472 28L474 28L473 33L468 33C468.119 40.8315 463.252 39.9524 457 41L450 39L450 40L454 40L454 41C447.542 40.5481 443.042 40.682 442 48L446 51L419 58L397.104 78.2091L397.83 94L401 130L402 130L400.772 115L409.262 101.91L414.04 87.7137L434 73C444.386 72.6711 457.616 61.0932 458 79L459 79C461.535 59.5002 475.45 42.9058 489.786 30.7677C492.846 28.1771 493.403 25.2312 490 23L492 20C484.817 20.0008 475.595 20.743 472 28z"/>
<path style="fill:#948a80; stroke:none;" d="M11 21L11 22L13 28L14 28L16 22L11 21z"/>
<path style="fill:#8b807a; stroke:none;" d="M19 21L19 28L22 26L25 28L26 28L26 21L23 25L22 25L21 21L19 21z"/>
<path style="fill:#8d7f7c; stroke:none;" d="M27 21C27.068 26.7369 28.2969 28.7412 34 30L35 23L34 23L29 27L31 25L31 24L31 22L27 21z"/>
<path style="fill:#908581; stroke:none;" d="M43 21C43.0991 29.3644 47.9009 29.3644 48 21L47 21L47 27L44 27L43 21z"/>
<path style="fill:#8f8681; stroke:none;" d="M50 21L50 28L51 28L51 24L52 24L55 28L55 21L54 21L54 25L53 25L50 21z"/>
<path style="fill:#8d847f; stroke:none;" d="M59 22L59 24L63 26L63 27L59 27L59 28C66.268 30.1835 60.61 23.6403 64 22L59 22z"/>
<path style="fill:#948b86; stroke:none;" d="M65 21L65 28L68 25L71 28L71 21L69 23L68 23L67 23L65 21z"/>
<path style="fill:#908782; stroke:none;" d="M72 21C72.0526 25.4341 72.1945 28.198 77 29L77 27L73 27L76 25L76 24L76 22L72 21z"/>
<path style="fill:#948b86; stroke:none;" d="M78 21L78 28L79 28L80 25L82 29C83.4669 24.7801 82.5773 21.7656 78 21z"/>
<path style="fill:#8a837d; stroke:none;" d="M95 21L95 22C96.8608 24.47 96.043 25.8573 94 28C99.1554 28.7901 98.4677 25.0682 98 21L95 21z"/>
<path style="fill:#362724; stroke:none;" d="M519 24L520 35L531 30L524 40C529.873 38.3249 543.154 34.7669 547 41L555 41C557.153 54.1894 573.971 41.244 579 49L583 48L590 81L593 80C591.07 91.6968 591.667 111.865 583 121L583 114L582 114C582 131.338 571.751 139.045 566 154L572 148L560 169L568 169L565 191C556.309 192.673 556.464 200.667 555.972 208C555.089 221.161 555.972 234.957 553.889 248C552.73 255.259 545.071 254.001 544 259L543 259L543 233C535.121 236.885 534.035 245.153 533 253L522 245L522 251L520 251L520 228L519 228C517.347 237.809 519 247.88 519 258C519 276.153 518.242 293.935 517.09 312C516.511 321.085 512.253 334.599 519 342L522 338C520.965 341.923 519.109 345.446 523 348L523 336L529 336L529 337L525 337L528 341L525 342L524 348L534 347L534 346L529 342L534 341L534 340L530 340L530 338L536 340C531.989 331.324 534.658 325.346 534.95 316C535.272 305.668 533.999 295.422 534 285C539.682 286.725 537.645 290.269 539.738 294.701C541.805 299.074 545.825 302.061 548 307L545 308L546 318L549 317L548 314C553.53 310.619 554.546 301.598 552 296L559 297L563 308L568 307L566.501 294.004L570 278L567 280C557.155 272.587 562.463 264.844 563.406 255C564.249 246.203 563.362 236.046 565.108 227.514C567.237 217.105 572.751 204.38 572 194L575 195L574 187L575 180C578.361 179.284 579.828 178.517 580 175C590.261 168.238 592.127 147.953 593.17 137C593.801 130.363 593.548 123.593 594.424 117C597.678 92.5353 608.254 67.3793 589.326 46.0447C584.17 40.2341 579.884 36.0244 572 35L579 43L568 45C567.162 41.0877 562.57 41.3751 559 41C557.778 33.3093 539.048 31.3803 532 33L538 25L524 27C530.8 21.7977 537.796 22 546 22C537.136 18.2806 527.807 23.2262 519 24z"/>
<path style="fill:#948d87; stroke:none;" d="M89 22L90 29L93 24L90 27L89 22z"/>
<path style="fill:#301a0f; stroke:none;" d="M524 27L538 25L532 33C539.079 31.8319 556.902 33.781 559 41L568 45L579 43C577.474 34.1292 564.215 32.9904 560 26C548.949 23.9008 533.377 16.816 524 27z"/>
<path style="fill:#78735f; stroke:none;" d="M492 30L499 25L492 30z"/>
<path style="fill:#d0895f; stroke:none;" d="M240 26C240 62.3128 230.32 105.519 248.884 138.96C253.071 146.502 260.49 152.613 266.501 158.545C272.302 164.27 277.006 176.459 286 178C287.676 183.774 291.471 182.312 295.576 185.388C302.974 190.932 307.98 194.33 312.615 202.421C315.038 206.65 318.66 214.669 311 214C312.622 224.818 318.419 237.991 330 238C330.803 243.165 332.592 248.478 338 250L334 236L337 239C342.521 237.168 343.983 217.874 344 212C335.906 212 327.602 211.078 325 202L330 202L330 198C317.879 197.74 311.772 186.997 302.711 180.47C291.178 172.161 283.565 160.162 275.29 148.517C272.217 144.191 267.746 141.665 266.799 135.961C265.782 129.84 271.657 121.924 271.961 115C272.827 95.206 271 74.8997 271 55C281.521 60.7821 276.621 80.8179 292 81L292 80C282.595 74.0575 282.621 52.9977 270 52L269.741 106.91L262 129L257 129L258 132C247.369 128.855 245.999 115.207 243.451 106.09C236.59 81.5357 243 51.5441 243 26L240 26z"/>
<path style="fill:#3c1d08; stroke:none;" d="M432 137L421 137L421 138C437.47 145.057 451.871 154.61 467.482 139.447C472.369 134.7 473.714 127.256 480 124C480.927 110.444 498.602 102.831 496 87L486 96L492 73L480 78C480.245 71.7141 474.894 72.3727 470 72L485.559 48.2855L489.692 38.5633L502 29C492.183 26.1872 483.421 36.276 477.44 42.9105C460.173 62.0654 459.292 88.2957 448.822 110.961C444.605 120.088 434.926 127.872 432 137z"/>
<path style="fill:#726a57; stroke:none;" d="M485 35L492 31L485 35z"/>
<path style="fill:#754f3c; stroke:none;" d="M507 47L512 46C510.411 58.4831 512.235 54.8422 520 63L525 58L519 56L519 52L516 52L519 44L531.911 42.5409L544 45L548 47L537 65L543 62L541 82L552 80C554.58 74.3432 557.248 67.0981 564 66L563 61L551 67C540.381 46.8874 567.352 49.1244 579 56L579 46C571.326 46.0059 557.985 51.0517 555 41L547 41C544.975 34.0771 529.085 37.9544 524 40L531 30C522.345 33.0375 508.189 36.4165 507 47z"/>
<path style="fill:#5b4d40; stroke:none;" d="M565 30L565 31L578 36L578 35L565 30z"/>
<path style="fill:#856a55; stroke:none;" d="M238 32L235 53L234 53L234 49L233 49L233 58L236 58L235 86L232 85L229 112C222.615 116.605 227.338 130.803 234 133L234 144L231 144L233 152L237 151L236 156L226 153L226 152C231.35 150.254 228.004 142.764 228 138L223 136L218 144L221 144L221 145L221 146L218 147L220 148L220 149C216.803 149.689 217.254 151.054 218 154L224 153L224 154L220 154L220 155L224 160L222 163L226.603 180.566L241 190L240 194L251 195L255 210L256 210C261.524 200.008 262.001 189.152 262 178C262 173.397 263.09 167.79 258 166C257.768 156.402 249.783 149.666 246.429 141C242.537 130.943 241.596 118.595 239.36 108C234.259 83.8287 239.984 56.5288 240 32L238 32z"/>
<path style="fill:#6f6450; stroke:none;" d="M475 46L476 46L485 35C480.117 37.2787 476.74 40.8825 475 46z"/>
<path style="fill:#835d4a; stroke:none;" d="M519 44L516 52L519 52L519 56L528 57L527 66L531 64L530 61L535 63L534 67C540.452 62.7845 546.013 54.3893 548 47L544 45L531.911 42.2631L519 44z"/>
<path style="fill:#80795f; stroke:none;" d="M472 46L470 52L471 52L474 46L472 46z"/>
<path style="fill:#371a12; stroke:none;" d="M585 92C579.971 91.8962 572.992 88.9995 571 95C580.456 95.0334 582.993 98.9088 583 108L567 104C572.714 112.375 582.716 107.72 583 121L587.683 108L593 80L590 81C589.992 69.0776 587.041 58.9547 583 48L578.577 53.0193L584.53 69L585 92z"/>
<path style="fill:#936148; stroke:none;" d="M551 67L563 61L564 66C558.338 66.4498 555.425 70.7567 554 76L577 55C567.766 46.384 537.712 49.1723 551 67z"/>
<path style="fill:#906049; stroke:none;" d="M271 55C271 71.5069 269.606 88.683 272.246 105C273.171 110.717 271.628 117.509 277 121L278 109L282 108C287.466 116.024 312.207 104.294 309 95C296.305 94.9636 302.272 88.6134 295.08 82.5139C292.521 80.3429 288.982 81.6435 286.228 79.9722C283.467 78.2972 281.433 73.4933 279.88 70.7145C277.09 65.7248 276.982 56.9785 271 55z"/>
<path style="fill:#9a7d77; stroke:none;" d="M566 64C568.446 62.3363 571.759 58.7093 574.96 59.037C583.505 59.912 580.995 74.1215 578.431 78.9059C575.321 84.7098 565.463 85.6922 560 89L564 69C558.658 71.282 551.561 77.2874 550 83L559 84C557.058 94.7306 546.828 96.0459 542 104C550.626 103.534 562.823 89.0497 563 104L564 104C564.031 100.306 563.556 89.7928 568.228 88.5733C572.046 87.5768 579.512 90.9876 584 91C584 82.8047 584.986 70.6509 582.105 63C578.184 52.5896 570.208 54.9829 566 64z"/>
<path style="fill:#805a47; stroke:none;" d="M579 56L581 62L582 62L579 56z"/>
<path style="fill:#c0927a; stroke:none;" d="M560 89C564.779 86.8235 573.826 85.161 577.297 81.4275C581.546 76.8573 583.905 60.9641 575.906 58.7122C564.295 55.4434 560.215 81.7349 560 89z"/>
<path style="fill:#5f593f; stroke:none;" d="M465 61L463 67L464 67L465 61z"/>
<path style="fill:#7b5644; stroke:none;" d="M583 66L584 91L578 91L578 92L585 92C585 84.7487 587.478 71.9113 583 66z"/>
<path style="fill:#795642; stroke:none;" d="M359 100L355 101L356 107L366 96L379 154L381 154L375.214 130.999L372 67C362.586 71.7447 359 90.4394 359 100z"/>
<path style="fill:#bbc69c; stroke:none;" d="M434 73C430.643 80.3118 420.951 80.7673 415.348 85.8087C410.128 90.5056 411.523 95.1269 409.262 100.961C407.508 105.484 403.017 108.392 401.144 113C397.765 121.313 401.524 141.263 412 142C415.744 135.404 425.138 135.295 432 135L432 134L417 134L417 133L418 112C423.769 110.297 432.303 103.127 433 97C438.747 96.8655 449.276 94.0523 446 104L449 105C452.038 98.8297 464.719 73.1902 454.721 68.6042C448.122 65.5766 440.482 72.5336 434 73z"/>
<path style="fill:#796f56; stroke:none;" d="M460 70L460 74L461 74L462 70L460 70z"/>
<path style="fill:#695244; stroke:none;" d="M0 73L0 142C5.27534 142 24.6714 144.903 27.9174 140.436C30.0554 137.494 24.3524 127.137 23.2292 124.001C17.5263 108.08 10.7772 86.0686 0 73z"/>
<path style="fill:#5c5237; stroke:none;" d="M459 75L445 118L446 118L456.81 89L459 75z"/>
<path style="fill:#685350; stroke:none;" d="M550 83L556 87L556 89C548.803 90.3163 541.91 88.1763 537 95L547 100C553.127 96.6017 558.263 91.1325 559 84L550 83z"/>
<path style="fill:#633424; stroke:none;" d="M286 87L286 93L293 93C292.288 88.6369 290.275 87.4818 286 87z"/>
<path style="fill:#6a514c; stroke:none;" d="M565 106L567 104L583 108C582.999 98.3504 581.008 95.0078 571 95L576 91C564.473 83.833 562.18 96.4563 565 106z"/>
<path style="fill:#996647; stroke:none;" d="M358 89C356.407 96.8663 350.926 96.9992 344 97L349 117L350 117L350 113L351 113L348 150L359 152L360 106L356 107L355 101L359 100L358 89z"/>
<path style="fill:#4e3018; stroke:none;" d="M499 92C494.661 97.7193 492.265 104.189 488.288 109.871C484.555 115.204 480.217 116.831 480 124C473.382 126.063 471.967 133.974 467.482 138.66C460.164 146.308 451.111 148 441 148L441 149L451 150C449.835 156.33 454.634 160.369 461 157.825C470.434 154.054 479.604 146.807 487 140L482 168C488.089 162.945 493.996 142.949 496 135L495 135L491 140L491 134L481 142L488 129L475 142L485.61 125L498 104L503.789 110.299L499 126L500 126C505.224 118.011 508.842 109.499 510 100L501 105L498 99L498 98L501 92L499 92z"/>
<path style="fill:#918e6f; stroke:none;" d="M453 94L451 100L452 100L453 94z"/>
<path style="fill:#c8d7a0; stroke:none;" d="M433 97C431.765 102.989 423.373 109.375 418 112L417 133L417 134C421.405 134 427.406 135.054 431.485 133.16C440.903 128.789 448.912 112.854 446 103C453.535 94.8931 435.795 96.8569 433 97z"/>
<path style="fill:#dc9b87; stroke:none;" d="M525 126L545 118C535.513 133.087 571.003 128.391 575.953 120.586C579.233 115.413 566.166 107.284 563.988 102.911C562.906 100.741 563.389 96.8709 560.701 95.8511C557.105 94.4869 550.539 101.623 547 102.954C541.92 104.864 536.255 103.141 531.185 105.148C523.559 108.168 524.183 119.53 525 126z"/>
<path style="fill:#888165; stroke:none;" d="M364 96C358.168 112.302 356.12 133.702 359.666 151C361.665 160.75 364.683 168.476 375 171L378 160L379 163L382 161L386 164L386 163L384 163L384 162L393 166L389 155L379 159L381 155C371.27 138.444 368.4 114.892 366 96L364 96z"/>
<path style="fill:#95796e; stroke:none;" d="M569 100L569 102L580 104C579.451 96.956 574.389 97.7172 569 100z"/>
<path style="fill:#a66d5c; stroke:none;" d="M373 101L381 153C384.493 151.074 385.602 148.04 384.686 144C383.398 138.321 378.65 133.837 377.39 128C375.406 118.809 377.296 109.923 373 101z"/>
<path style="fill:#9fa47b; stroke:none;" d="M449 104L447 110L448 110L449 104z"/>
<path style="fill:#3a1a05; stroke:none;" d="M475 142L488 129L481 142L491 134L491 140C496.133 136.945 506.456 116.263 504.303 110.299C503.42 107.852 499.668 106.041 498 104C491.327 107.66 489.171 117.734 485.61 124C482.218 129.967 476.623 135.235 475 142z"/>
<path style="fill:#835f49; stroke:none;" d="M501 130L505 127L506 127L507 148C511.317 147.286 512.331 145.165 513 141L512 141L510 147L509 147L508.388 132L515 105C506.375 106.434 501.923 122.434 501 130z"/>
<path style="fill:#836958; stroke:none;" d="M15 106C17.2112 115.04 23.1245 122.963 25.8341 131.985C26.4862 134.157 29.0234 138.398 27.2639 140.436C23.4077 144.903 5.62736 142 0 142L0 248C7.23318 248 30.116 253.202 33 245L40 247C39.6312 241.688 36.7596 235.554 32 233L32 235L30 235L34.6096 203.001L31.2816 190.661L32 178C27.3836 177.523 28.4197 167.995 28 164L32 164L32 168L33 168L48 166L49 158L50 158L56 160L54 158L56 144C49.856 140.394 47.3016 133.384 45 127L28 127L15 106z"/>
<path style="fill:#88665a; stroke:none;" d="M567 106C569.569 111.922 573.765 113.714 580 114L580 127L581 127C581 113.981 578.184 112.28 567 106z"/>
<path style="fill:#6a4b46; stroke:none;" d="M569 107L579.397 113.6L581 126C585.695 114.811 579.535 108.791 569 107z"/>
<path style="fill:#a78178; stroke:none;" d="M525 111C521.174 121.144 507.214 159.058 532 143C522.159 136.613 533.669 129.398 541 128L544 134L552 129L552 128C544.069 127.906 541.832 125.144 545 118L525 126L525 111z"/>
<path style="fill:#a8786a; stroke:none;" d="M573 113C582.385 126.106 560.195 126.023 552 126L552 128L570 127L570 133C581.616 131.024 580 123.968 580 114L573 113z"/>
<path style="fill:#71714d; stroke:none;" d="M444 118L440 125L444 118z"/>
<path style="fill:#c17d56; stroke:none;" d="M242 120C242.987 153.428 268.579 168.594 288.88 190.444C295.489 197.557 300.266 211.85 310 215L312 222L313 222L311 214C319.359 215.904 315.313 206.768 313.096 202.421C308.894 194.182 303.163 189.783 295.576 184.633C291.556 181.906 288.416 182.969 286 178C277.695 175.411 272.605 164.564 267.182 158.545C261.225 151.934 253.259 146.039 248.884 138.021C245.811 132.387 245.957 124.834 242 120z"/>
<path style="fill:#664c3f; stroke:none;" d="M502 122L498 131C501.035 128.895 502.91 125.705 502 122z"/>
<path style="fill:#9a7a65; stroke:none;" d="M122 124L122 128C118.092 128.404 115.336 129.101 114 133L100 131C97.2629 134.391 88.9994 137.287 87.6582 140.394C84.4961 147.721 95.1706 155.83 80 156L80 150L74 152L74 159L72 164L65 168C60.7231 162.091 57.271 168.068 57 173L50 173L50 170L46 170L46 174C42.1206 171.917 38.0195 162.345 33 168L32 168L32 164L28 164C28.2833 168.218 27.3281 177.473 32 178L30.7184 189.887L34.3619 203.001L30 235L32 233C36.106 236.327 39.279 241.724 40 247L33 245C28.2604 253.113 8.2219 248 0 248L0 269C19.4968 259.779 38.8215 264.84 58.9105 259.582C62.9368 258.528 66.0566 255.199 70 253.815C75.0684 252.036 87.4949 253.62 90.9676 249.262C92.4945 247.345 91.7913 236.142 92 233L98 233C100.367 216.041 123.355 216.105 128 200L145 196C150.853 203.188 161.547 199.352 168.925 200.328C173.546 200.939 177.06 202.986 182 203C183.796 197.013 191.368 193.788 195 200L205 199C197.59 213.242 212.654 209.831 221 209C224.858 221.797 242.166 220.566 241 236L242 236L245 219L248 221L249 221L253 220C259.158 211.147 254.728 203.283 251 195L240 194L241 190L227.028 180.566L222 163L224 160L220 155L220 154L224 154L224 153L218 154L220 149L220 148L218 147L221 144L218 144L218 143L223 136C212.16 133.426 209.02 141.976 199.91 142.745C196.889 143.001 194.113 140.971 191.184 140.481C181.425 138.847 171.386 138.417 163 134L162 134L160 136L159 130C154.162 132.629 143.768 129.739 141 125L130 126L132 130L125 131L124 128L124 127L126 125L122 124z"/>
<path style="fill:#9aa177; stroke:none;" d="M439 124L437 130L438 130L439 124z"/>
<path style="fill:#c98b66; stroke:none;" d="M294 128L294 134C298.5 136.782 303.169 141.67 304 147L308 146L308 151L312 154C302.273 154.444 290.185 159.16 288 145L282 140L280 140L279 141L279 143C281.905 146.076 281.568 149.386 283.474 152.985C287.557 160.698 307.593 191.064 317.782 176.401C319.452 173.999 317.748 170.706 318.639 168.054C319.855 164.435 323.872 163.023 324.436 158.981C325.329 152.587 322.156 145.431 331 144L336 140C336 117.92 308.844 127.949 294 128z"/>
<path style="fill:#947062; stroke:none;" d="M505 127L500 130L497.148 148.996L504 165L518 170L522 174L521 177L533 178C537.8 169.031 542.195 167.636 533 158C535.322 157.536 536.738 154.548 534 154L534 153L537 152C532.975 150.668 530.546 150.206 529 146C536.562 145.995 556.618 148.668 558 140L544 134L552 138L552 141C545.26 141.447 535.653 142.807 529.089 144.554C525.755 145.442 521.832 148.916 518.742 145.526C515.567 142.042 517 134.353 517 130L516 130C514.443 136.305 514.12 145.858 507 148L505 127z"/>
<path style="fill:#6f5652; stroke:none;" d="M544 131L544 134C552.258 135.13 553.359 140.661 562 137L563 149C570.393 146.366 577.942 137.464 580 130L570 133L570 127L544 131z"/>
<path style="fill:#cda492; stroke:none;" d="M552 141L552 138C546.154 137.064 542.561 133.726 541 128C535.016 128.646 519.95 137.599 531.109 142.852C538.31 146.242 545.003 141.911 552 141z"/>
<path style="fill:#a4ab7f; stroke:none;" d="M432 134L437 130L432 134z"/>
<path style="fill:#746059; stroke:none;" d="M499 130L493.298 154.942L482 168L483 149C474.938 150.564 464.187 163.832 456 160L436 146L446.581 164L444 185L445 185L445 182L446 182L444 199L448 201L444 200L444 208L440 208L426 227C421.943 226.335 411.806 229.538 411 224L403 224C404.292 207.653 412.749 203.03 428 205L426 200L430 200L434 183C429.04 183.347 425.555 183.853 423 179L397 177L397 176C413.262 173.019 390.111 162.46 384 162L384 163L386 163L386 164L382 161L379 163L378 160C373.683 162.463 375.282 166.56 375 171C362.635 166.75 364.964 183.331 364 191C365.925 192.075 369.459 194.983 370 192L374 197L377 196L377 194L367 185C369.651 186.804 374.901 191.999 376 187L379 188L378 184C379.288 184.568 380.694 185.359 382.045 185.782C394.316 189.623 386.026 177.93 390 173L409.342 190.21L404.013 199.518L403 209L397 203L385.91 209.812L365 197L380 215L381 215C388.107 210.982 392.235 222.145 400 221L393 246L396 245L396 249C385.813 252.256 379.42 271.237 379 281L380 281C384.227 265.862 398.267 248.24 413.209 242.584C421.755 239.35 435.32 242.656 438 252C448.916 257.876 438.502 273.765 440 283C451.878 283.653 451.579 268.363 457.069 260.09C459.971 255.717 465.095 253.357 466 248L483 252L485.579 289.715L483 304L490 305L490 304L486 303L496.121 289.741L501.235 252.09L509.341 238.715L517 227L517.812 208L514 193L502.981 205.679L488 208L488 205L496 202C493.939 193.821 505.125 178.074 514.001 177.333C517.869 177.01 520.599 179.964 524.17 180.725C536.134 183.277 549.661 180.079 550 166L539 163L540 160L535 159L539.119 169.892L533 178L521 177L522 174L518 170L504 165L497.152 147.999L499 130z"/>
<path style="fill:#704c34; stroke:none;" d="M497 131L486 162L487 162C493.456 155.553 500.801 140.743 497 131z"/>
<path style="fill:#8b5a31; stroke:none;" d="M593 134L587.443 164L586 197L640 199L640 169L612 168L613 149C607.949 152.275 611.393 159.091 607.911 163.682C605.323 167.092 594.358 167.572 592.889 162.772C590.175 153.905 596.841 143.154 593 134z"/>
<path style="fill:#67653e; stroke:none;" d="M417 139L422 139L421 137L432 137L432 135C427.084 135.101 420.052 134.767 417 139z"/>
<path style="fill:#967e5c; stroke:none;" d="M413 141L427 141L427 140L418 137L413 141z"/>
<path style="fill:#713e3a; stroke:none;" d="M529 146C530.664 153.626 546.365 153.182 552 160L538 159L538 160L539 163L550 166L547 177C556.389 168.758 569.608 151.978 574 140L563 149L562 137L554.852 144.933L529 146z"/>
<path style="fill:#dba57f; stroke:none;" d="M412 139C410.392 141.444 409.413 141.662 407 140L406 140L406 144C395.807 144.007 381.781 147.554 379 159L393.942 157.188L406.058 170.397L431 165C433.61 159.78 437.398 150.498 433 145C428.886 139.857 413.674 140.305 414 139L412 139z"/>
<path style="fill:#704b30; stroke:none;" d="M486 140C478.625 146.788 470.179 153.119 461 157.272C454.888 160.038 450.548 156.067 451 150L444 150C445.482 154.263 451.08 163.338 456 160C463.231 164.783 475.827 151.297 483 149L483 159L484 159L486 140z"/>
<path style="fill:#9d785d; stroke:none;" d="M427 141L430 143L427 141z"/>
<path style="fill:#6a513b; stroke:none;" d="M430 143L430 144L439 147L430 143z"/>
<path style="fill:#a9836c; stroke:none;" d="M433 145C435.587 154.902 446.98 174.349 427 175C425.435 167.349 409.995 178.705 405 171L404 171L400 175L400 177L421 176.889L441 180C441.032 168.542 444.937 152.332 433 145z"/>
<path style="fill:#451c20; stroke:none;" d="M534 148L534 149L557 155L558 150L534 148z"/>
<path style="fill:#261410; stroke:none;" d="M571 148C565.557 154.609 558.935 160.138 553.569 166.83C550.474 170.69 549.327 174.888 544.985 177.752C531.693 186.519 512.055 172.116 515 196C520.247 199.055 519.991 205.49 520 211L520 251L522 251L522 245L533 253C534.665 244.909 535.957 238.178 543 233L543 259L544 259L544 256C554.581 255.743 554.316 246.679 554.911 238C555.839 224.435 550.153 197.851 565 191L568 169L560 169C562.556 162.114 573.403 156.134 571 148z"/>
<path style="fill:#be9275; stroke:none;" d="M435 150L431 165C422.996 163.519 421.912 167.7 414.985 169.57C410.763 170.71 406.715 169.122 405 174C409.902 174 425.892 170.528 427 175C440.649 174.837 442.412 159.016 435 150z"/>
<path style="fill:#ca7676; stroke:none;" d="M534 153L534 154L543 156L543 152L534 153z"/>
<path style="fill:#a45050; stroke:none;" d="M543 153C540.732 156.458 537.762 155.462 534 155L533 158L533 159L552 160L543 153z"/>
<path style="fill:#af8b7d; stroke:none;" d="M389 156C391.384 164.905 394.081 165.636 402 169C401.076 162.65 395.856 155.368 389 156z"/>
<path style="fill:#8c7265; stroke:none;" d="M440 155L441 180L422 176.599L397 176L397 177C405.685 181.366 413.693 179.006 423 179C424.754 184.554 429.087 183.607 434 183L430 200L426 200L428 205C412.571 202.008 403.702 207.662 403 224L411 224C411.707 229.85 421.548 226.617 426 227L440 208L444 208L444 200L448 201L444 199L446 182L445 182L445 185L444 185C444.702 174.636 452.352 162.026 440 155z"/>
<path style="fill:#ab8572; stroke:none;" d="M537 165L536 165L536 170C529.134 169.701 521.888 168.883 521 161L533 164C529.321 156.976 512.44 156.296 517.008 165.811C520.303 172.674 538.827 175.958 537 165z"/>
<path style="fill:#44322e; stroke:none;" d="M587 159L580 175L575 180L574 187L575 195L572 194C572.268 204.532 567.035 216.608 564.969 227.17C563.225 236.084 564.171 246.517 563.124 255.715C562.129 264.461 556.131 274.583 567 280L570 278L566.309 294.004L568 307L563 308L559 297L552 296C553.921 302.463 553.147 309.378 548 314L546 318L545 308L548 307C545.974 301.121 543.118 299.593 540.164 294.701C537.549 290.368 540.272 286.047 534 285C533.992 297.621 535.296 310.47 534.074 323C533.521 328.677 530.308 334.334 536 338L535 345L530 345L530 346L534 346L534 347L531 347C531 351.221 526.649 348.697 524 348L525 346L525 345L523 348L520 346L516 349L517 338C512.784 330.809 517.335 314.404 517.911 306C519.594 281.419 516.45 256.3 518 232C510.513 236.592 509 245.985 509 254L510 254C511.195 248.79 512.309 244.924 517 242L516.871 279.961L510.509 347L513 358L565 358L567 345C557.146 344.248 563.77 340.38 567 337C574.487 339.019 573.874 332.67 574.015 327C574.264 316.995 575 307.062 575 297C575 280.21 579.842 265.495 581.816 249C583.392 235.826 581.544 222.15 583.428 209C585.215 196.53 586.94 184.66 587.001 172C587.021 167.766 588.542 162.951 587 159z"/>
<path style="fill:#bb9588; stroke:none;" d="M521 161C521.462 169.346 528.855 169.852 536 170C535.412 162.626 527.349 161.071 521 161z"/>
<path style="fill:#ae7653; stroke:none;" d="M258 163L264 177L268 184C277 183.684 287.548 197.071 274 198L280 216C295.135 207.388 301.924 212.296 311.677 226.285C315.268 231.437 323.06 244.324 314.891 248.643C305.223 253.754 294.734 245.241 286 243C287.221 251.001 296.919 260.698 304 264C312.582 258.657 329.914 270.188 332.347 279.093C334.097 285.497 330.674 292.913 329.39 299C327.479 308.055 325.88 318.754 325.093 328C324.523 334.68 326.084 345.767 323.411 351.798C322.066 354.832 318.522 353.302 316 353L315 355L315 356L354 358C354.317 347.031 356 336.199 356 325C356 319.699 357.19 314.351 351 313C350.992 300.838 349.336 288.838 353.633 277.019C356.988 267.794 365.914 257.455 365 247L366.995 236L366.67 223.17L371 202L369 202L361.402 229.05L352 251L349 254L348 254L343 250L344 256L348 256C338.789 265.155 331.904 245.617 330 238C320.106 237.965 311.885 224.401 310 215C302.272 210.86 297.379 201.057 292.545 194.025C287.719 187.005 279.698 182.301 273.559 176.495C268.43 171.642 265.013 165.415 258 163z"/>
<path style="fill:#945c3b; stroke:none;" d="M334 166C320.912 166.155 332.46 175.228 334 166z"/>
<path style="fill:#bb8b87; stroke:none;" d="M395 168L400 172L395 168z"/>
<path style="fill:#925c3a; stroke:none;" d="M262 169L259 210L273 220C286.565 213.662 275.269 207.517 274 198C287.946 197.577 277.895 182.515 268 184C267.88 180.308 267.687 178.223 264 177L262 169z"/>
<path style="fill:#544540; stroke:none;" d="M389 173C385.521 178.244 393.724 188.835 382.045 185.333L378 184L379 188L376 187L375 190L367 185L377 194L377 196L374 197L370 192L361 191C361.541 195.697 380.558 210.328 385.91 210.369C389.657 210.397 393.999 204.99 397 203C398.202 206.627 399.192 208.173 403 209L409.797 191.068L402.015 184.78L389 173z"/>
<path style="fill:#604943; stroke:none;" d="M496 202L488 205L488 208C496.453 207.953 503.878 208.808 508 200C504.241 193.317 512.898 179.537 520 179C509.655 171.934 492.311 191.85 496 202z"/>
<path style="fill:#4d3a33; stroke:none;" d="M506 200L514 193C514.126 198.872 515.538 203.989 520 208C519.903 203.344 519.969 197.741 515 196C514.575 189.752 514.478 181.2 522 180C511.575 175.637 507.072 192.197 506 200z"/>
<path style="fill:#8e5a42; stroke:none;" d="M352 182C341.474 187.153 325.592 186.968 314 187C315.753 198.322 327.88 193.645 335.961 196.225C339.141 197.24 342.186 201.39 345.794 200.288C351.675 198.491 354.784 186.749 352 182z"/>
<path style="fill:#726360; stroke:none;" d="M391 195L400 193C398.275 186.861 392.149 190.295 391 195z"/>
<path style="fill:#9f7157; stroke:none;" d="M319 195L319 196C325.945 196.001 330.736 195.888 331 204L346 211L347 201L319 195z"/>
<path style="fill:#c09372; stroke:none;" d="M128 200C121.481 214.133 99.1293 216.895 98 233L92 233C91.5754 236.335 92.2654 246.39 90.9182 248.581C88.2168 252.974 75.6319 252.319 71 253.271C66.086 254.28 62.7014 258.373 57.9606 259.582C48.3672 262.028 36.9092 260.228 27 261.576C17.6574 262.848 5.21946 261.46 0 271C17.644 261.228 35.747 265.132 55 262.87C61.3478 262.125 67.0831 257.967 73.0895 255.96C81.1316 253.272 90.0808 253.546 98 250.532C103.144 248.575 105.559 244.64 110 242C108.988 215.261 144.494 221.03 160 214L160 210L170 211L170 212L168 212L168 213C173.696 212.755 186.99 214.056 189 208L197 212L197 215L202 215C204.479 222.355 215.562 229.072 223 230C224.371 236.874 228.153 239.923 235 240C233.994 246.306 229.468 245.996 224 246L225 251C227.885 249.395 231.987 249.532 234.431 247.397C239.358 243.094 239.713 233.73 235.189 229.188C230.111 224.09 223.349 223.312 217.17 220.455C206.446 215.497 199.281 209.429 192 201C186.801 203.113 183.246 207.166 177.09 205.697C173.349 204.804 171.02 201.537 166.999 201.218C159.656 200.637 151.019 200.952 145 196L128 200z"/>
<path style="fill:#b98166; stroke:none;" d="M182 203L164 200L164 201C176.797 201.859 179.183 208.439 192 201C196.645 209.856 206.455 216.466 216.222 220.667C222.722 223.462 230.062 224.225 235.278 229.722C243.003 237.866 235.547 249 226 249L228.326 261.015L218.693 283L193 340L194 340L199 330L201 332L202 324L205.218 334.397L220 336L219 333L232 317L236 308C240.988 307.267 242.14 303.737 245 300L233 358L235 358C236.129 343.836 242.724 330.497 246.451 316.91C251.228 299.495 254.583 279.891 261.184 263.17C264.109 255.763 269.279 250.603 272.869 243.715C279.433 231.12 279.346 209.583 299 212L299 211C288.392 208.474 281.452 214.302 273 220C270.131 214.806 264.72 211.309 259 210L259 206L253 220L249 221L248 221L245 219L242 236L241 236C242.907 220.831 226.817 220.853 221 209C211.842 209.469 199.502 213.354 205 199L195 200C192.479 192.832 183.014 196.851 182 203z"/>
<path style="fill:#906b4e; stroke:none;" d="M585 200C600.029 193.632 623.724 201 640 201L640 199C626.294 199 612.676 197.022 599 197C594.262 196.992 587.851 195.603 585 200z"/>
<path style="fill:#a98970; stroke:none;" d="M585 208L586 208C586.632 196.493 600.446 200 609 200C599.277 195.806 585.045 195.256 585 208z"/>
<path style="fill:#cbb6a5; stroke:none;" d="M582 323L576 320L579 345L577 345L577 340L575 340L575 345L572 345L571 358L640 358L640 281L626 282L639.54 240.715L640 202C626.943 202 614.017 200.021 601 200C597.526 199.994 590.618 198.701 587.742 201.028C581.204 206.318 588.088 226.928 587.996 234C587.829 246.834 583.4 260.074 582.17 273C580.61 289.386 582 306.538 582 323z"/>
<path style="fill:#b7987c; stroke:none;" d="M609 200L609 201L640 202L609 200z"/>
<path style="fill:#7b6955; stroke:none;" d="M584 202L583 227L584 227L584 202z"/>
<path style="fill:#916c59; stroke:none;" d="M372 204C371.367 211.94 366.296 218.673 365.848 226.428C365.46 233.16 369.555 240.987 365 247C364.076 258.145 356.606 266.986 353.312 277.019C349.32 289.18 350.966 300.593 351 313C359.616 316.168 356 334.258 356 342L357 342C360.88 329.757 352.832 301.299 371.015 297.479C375.367 296.565 379.657 297.657 384 298L381 277L380 277L375 283C373.832 271.771 381.251 254.872 386.727 245.17C389.443 240.357 396.269 231.986 394.677 226.205C392.973 220.014 382.399 216.51 377.978 212.275C375.415 209.821 374.541 206.448 372 204z"/>
<path style="fill:#6b4b40; stroke:none;" d="M518 207L517 227C512.19 228.723 511.974 233.929 509.341 237.83C498.338 254.128 501.795 269.852 496.431 287.946C494.858 293.255 488.947 298.224 486 303L496 307C496.022 300.736 499.163 297.705 500.62 291.996C504.129 278.248 503.252 264.121 515 254L516 284L517 284L517 242C511.77 244.185 510.778 248.712 510 254L509 254C509.001 245.977 511.371 236.188 519 232C519.887 224.98 522.511 212.954 518 207z"/>
<path style="fill:#d09c77; stroke:none;" d="M189 208C185.716 213.955 174.243 212.507 168 213L168 212L170 212L170 211L160 210L160 214C156.794 214.901 154.271 217.338 150.961 217.853C136.889 220.041 106.488 218.707 110 242L102 248L102 249L135.089 248.711L153.816 249.722L173 244C175.429 239.61 186.246 239.409 184 245L184 246L210 243L210 246C216.183 246.005 219.66 246.391 223 252L224 252L224 246C229.656 245.999 234.472 246.778 235 240C228.3 239.799 225.029 236.242 223 230C215.283 228.346 205.869 221.933 202 215L197 215L197 212L191 208L189 208z"/>
<path style="fill:#b3a091; stroke:none;" d="M585 208C581.624 219.422 583.138 234.09 582.996 246C582.877 256.005 581.016 265.984 581 276C580.989 282.956 583.91 297.19 577 301C577 307.489 574.274 320.434 582 323C582 300.62 581.239 278.265 584.125 256.039C586.117 240.696 591.369 223.177 585 208z"/>
<path style="fill:#d0926d; stroke:none;" d="M235 358L243 358C244.04 345.27 250.114 332.785 254.465 320.91C259.002 308.529 262.149 295.888 267.431 283.625C270.109 277.405 268.501 269.37 271.187 263.44C273.762 257.754 287.597 254.789 292.83 257.693C303.48 263.602 301.661 275.221 299.252 285C296.136 297.646 288.83 307.383 284.289 319.289C279.494 331.863 277.383 345.539 272 358L281.757 356.106L284.453 345L293 314C298.485 312.278 299.439 307.054 300.745 301.996C303.38 291.789 308.99 274.366 302.987 264.424C298.321 256.696 288.483 252.141 286 243C292.612 245.727 313.411 256.891 318.257 245.811C320.922 239.716 314.699 230.34 312 225L311 225C311.026 228.198 312.135 232.552 310.632 235.481C304.563 247.307 275.007 235.079 290.22 221.724C291.996 220.165 293.786 219.577 296 219L296 215L307 220C298.401 203.03 281.383 214.884 277.208 228.17C273.156 241.064 265.09 250.653 260.839 263.17C254.935 280.554 251.81 299.395 246.166 316.91C241.934 330.043 235.598 344.099 235 358z"/>
<path style="fill:#6a4e43; stroke:none;" d="M381 213C383.128 219.444 394.478 220.971 394.719 228.004C394.897 233.185 388.7 240.725 386.201 245.17C381.036 254.357 372.948 272.449 375 283C379.873 281.043 378.935 276.595 380.84 272.285C384.409 264.215 387.663 253.427 396 249L396 245L393 246L400 221L381 213z"/>
<path style="fill:#e5aa7e; stroke:none;" d="M296 215L296 219C290.26 219.841 281.753 227.782 286.322 234.164C289.997 239.298 299.109 240.673 304.907 239.867C320.536 237.693 306.9 215.792 296 215z"/>
<path style="fill:#c98c70; stroke:none;" d="M220 316C244.497 310.152 251.2 278.661 257.295 256.996C259.576 248.887 271.105 237.658 259.981 231.248C247.749 224.199 242.722 242.933 239.718 252.015C232.108 275.016 210.198 289.703 220 316z"/>
<path style="fill:#7e6a63; stroke:none;" d="M582 229L575 321L576 321L577 301C583.176 298.95 581 289.375 581 284C581 268.224 588.156 243.671 582 229z"/>
<path style="fill:#a18570; stroke:none;" d="M173 244L165 244C167.541 245.066 186.786 249.547 185.118 243.125C183.775 237.956 174.344 239.95 173 244z"/>
<path style="fill:#9b7b6c; stroke:none;" d="M388 266L407 253.498L422 258C422.99 270.54 417.986 292.532 402 293L411 304C424.31 302.208 429.028 293.546 440 288L440 287L437 287C440.078 279.747 448.811 255.503 438 252C436.652 243.448 428.371 242.003 421 242C408.179 241.995 391.451 252.863 388 266z"/>
<path style="fill:#b7a493; stroke:none;" d="M638 242L633.279 253L632.846 262.715L626 282L640 281L640 242L638 242z"/>
<path style="fill:#baa69f; stroke:none;" d="M161 268L172 267C171.326 271.277 167.943 272.593 166.661 276.306C164.781 281.755 172.905 285.864 177 286L176 283C182.066 281.949 186.389 278.947 190 274L186 263C191.459 263.495 194.787 265.574 198 270L192 272L192 278L207 270C209.616 262.812 225.671 257.86 221.381 268.811C218.792 275.421 204.629 275.925 199.129 279.026C196.618 280.442 195.418 283.291 192.871 284.682C189.718 286.404 185.892 285.714 182.59 287.058C171.154 291.712 160.269 297.472 149.09 302.133C140.743 305.613 132.063 310.684 123 310L123 300C117.858 299.598 112.057 298 110 304L111 304C113.157 302.109 114.218 301.6 116 304L121 303L118 307L118 308C130.421 314.978 137.175 316.441 150.701 311.492C157.191 309.116 161.547 301.097 169.714 304.858C181.725 310.39 172.451 318.728 172.188 327C172.003 332.83 178.088 337.064 183 338.867C185.125 339.646 187.627 340.162 189.896 339.837C196.899 338.836 200.857 322.704 203.179 317C211.885 295.61 233.064 272.12 225 249L224 249L223 252C220.434 245.673 216.148 246.001 210 246L210 243C200.128 243 191.563 245.536 182.004 246.677C175.794 247.419 169.603 244.285 163.015 245.188C159.286 245.7 157.205 248.401 153.816 249.491C151.039 250.384 138.456 248.146 138.341 252.243C138.083 261.484 157.737 259.678 161 268z"/>
<path style="fill:#cbbbae; stroke:none;" d="M79 257L79 261L74 261C79.3189 267.419 86.8874 267.49 87 277C82.5504 275.782 78.4733 274.68 77 270L53 273L53 272L56 270C49.364 270.524 38.9408 268.826 38 277L47 277L47 286L52 286L52 285L50 283C70.9432 281.421 46.8535 295.949 39 298.251C34.0996 299.687 28.8842 298.104 24.0147 299.433C21.2304 300.193 18.9273 303.246 15.9252 302.917C9.87415 302.255 7.15621 297.006 0 297L0 320L6 320L0 324L0 346L81 346C94.1239 346 110.159 348.235 122.895 344.682C132.699 341.947 127.475 324.478 122.316 319.754C117.497 315.343 105.291 314.562 99 313L99 308L123 300L123 310C132.454 311.188 141.308 305.679 150.039 302.133C161.281 297.567 171.971 291.652 183.428 287.058C186.729 285.734 190.637 286.481 193.741 284.682C196.234 283.237 197.481 280.41 200.054 279.026C205.266 276.223 218.73 275.519 221.396 269.657C226.488 258.456 209.057 260.48 207 270L192 278L192 272L198 270C195.49 264.778 191.595 263.26 186 263L190 274L176 283L177 286C161.817 284.829 171.435 274.33 172 267L161 268C158.929 259.391 151.567 262.046 145.09 258.556C141.057 256.384 139.153 250.022 135.711 248.642C133.193 247.632 128.779 249.161 125.996 249.071C108.922 248.517 95.4214 255.657 79 257z"/>
<path style="fill:#9b7a6b; stroke:none;" d="M466 248C464.522 252.82 459.883 255.089 457.069 259.174C450.967 268.031 446.327 284.349 452.058 294.165C456.546 301.854 467.576 299.643 470 308L471 308L471 304L483 304L485.856 290L483 252L466 248z"/>
<path style="fill:#c3ac9e; stroke:none;" d="M0 297C7.189 297.025 9.70622 302.649 15.9252 303.378C19.3367 303.778 21.8473 300.285 25.0039 299.433C29.8823 298.116 35.0953 299.689 40 298.251C48.5795 295.736 71.4798 280.302 50 283L52 285L52 286L47 286L47 277L38 277C39.6753 268.966 49.324 270.844 56 270L53 272L53 273L77 270C77.8866 275.122 82.3198 276.194 87 277C86.9664 267.513 80.5704 266.586 74 261L79 261L79 257L104 250C98.2279 247.998 88.1494 252.84 82 253.855C72.4368 255.433 64.3074 261.088 55 262.737C40.4904 265.308 13.7758 257.952 2.3179 269.533C-2.86949 274.776 0 290.055 0 297z"/>
<path style="fill:#ae8a7a; stroke:none;" d="M384 299C387.815 298.229 390.363 295.588 394.015 294.51C399.149 292.995 405.468 294.546 410.142 291.392C420.675 284.283 423.441 269.402 422 258C416.557 257.303 411.552 252.597 406 253.318C385.995 255.915 376.797 282.79 384 299z"/>
<path style="fill:#a87965; stroke:none;" d="M514 254C503.147 264.001 503.954 277.842 500.62 290.999C499.072 297.108 496.005 300.319 496 307L486 305L486 306C494.48 309.283 498.812 322.289 490 328L494 331L495 337C515.277 332.1 515.993 292.764 516 275C516.002 268.783 517.872 259.111 514 254z"/>
<path style="fill:#d8a286; stroke:none;" d="M243 358C250.136 358 265.644 360.941 271.686 356.972C275.724 354.32 280.329 337.009 281.444 331.985C285.852 312.146 308.792 286.061 300.122 265.015C296.287 255.704 278.608 253.019 272.148 261.059C269.429 264.443 270.385 269.005 269.586 273C268.357 279.151 265.906 283.456 263.884 289.104C260.416 298.795 257.929 308.287 255.12 317.996C251.278 331.28 243.614 343.906 243 358z"/>
<path style="fill:#c19b84; stroke:none;" d="M400 258.941C392.811 261.914 385.256 271.223 384.148 279C383.119 286.222 391.094 291.228 397.853 288.393C402.648 286.381 408.923 270.11 409.349 265.004C409.795 259.653 404.595 257.042 400 258.941z"/>
<path style="fill:#815435; stroke:none;" d="M304 262L304 266L311 272L312 272C316.452 269.943 321.279 273.423 324 277C310.433 279.264 327.674 293.425 329 298C344.482 278.531 320.255 264.148 304 262z"/>
<path style="fill:#ab7b64; stroke:none;" d="M304 266C304.983 278.456 306.219 307.13 293 314L288.666 327.001L281 358C293.443 358 295.033 354.236 296 342C302.385 339.883 300.864 329.535 302.785 324C308.721 306.899 316.513 283.037 307 266L304 266z"/>
<path style="fill:#79675d; stroke:none;" d="M310 270C311.546 289.589 308.093 305.355 302.455 324C300.652 329.963 302.039 338.673 296 342L293 358C296.716 357.204 296 354.363 296 351C306.058 347.675 299.312 329.463 311.004 327.293C313.655 326.801 316.403 327.518 319 328L321 341L313 348L315 353L323.012 353.343L324.09 340L329 304L328 304L326 313L312 305C312.033 293.636 318.099 280.036 310 270z"/>
<path style="fill:#60433b; stroke:none;" d="M312 270L312 305L326 313C328.049 308.175 330.107 301.328 328.682 296.058C327.326 291.041 311.08 280.922 324 277C321.662 272.416 316.806 271.001 312 270z"/>
<path style="fill:#634b41; stroke:none;" d="M579 270C574.088 276.823 575 285.932 575 294L576 294L579 270z"/>
<path style="fill:#906958; stroke:none;" d="M450 274C448.34 278.509 444.897 287.748 440 280L439 280C438.512 283.141 436.083 286.139 440 287L440 288L432 293L432 294C438.622 301.333 436.297 313.19 448 316L448 317L442 318L442 319L446 319L463 338L465 337L470 346C476.799 348.389 487.396 351.26 491 358L507 358L508 340L510 340L510 345L511 345C511 341.637 511.716 338.796 508 338L510 320L509 320C507.813 329.681 503.905 334.262 495 337L494 331L470 308C468.681 299.731 457.801 301.651 453.189 295.071C447.886 287.506 452.609 281.293 450 274z"/>
<path style="fill:#745044; stroke:none;" d="M514 287L508 338C512.924 336.945 510.681 330.044 511.083 326C512.121 315.576 519.522 296.584 514 287z"/>
<path style="fill:#7a5a4f; stroke:none;" d="M384 299L384 300L398 308C399.457 301.824 402.926 300.072 409 300L409 306L426 304C423.101 311.954 421.091 322.871 432 323L434 330C439.809 331.448 447.442 337.675 450 343L456 343C460.368 359.626 477.623 358 491 358C488.741 351.121 476.481 347.357 470 346L465 337L463 338L446 319L442 319L442 318L448 317L448 316C438.806 312.438 436.005 302.877 434 294L411 304C408.729 288.5 392.705 296.103 384 299z"/>
<path style="fill:#6c4639; stroke:none;" d="M468 358L456 343L450 343C448.355 337.313 439.896 330.839 434 330L432 323C420.845 322.637 423.945 311.766 426 304L409 306L409 300C402.723 300.022 398.924 301.216 398 308C387.728 304.044 382.39 294.809 370.039 297.479C362.122 299.191 355.032 315.113 358.603 322.586C360.704 326.982 372.282 338.885 376.474 341.891C382.4 346.141 393.928 347.295 401 348.128C410.053 349.195 418.834 353.022 428 353.826C432.489 354.219 436.605 352.042 441 352.398C445.587 352.769 447.942 356.597 452.09 357.683C456.93 358.95 463.012 358 468 358z"/>
<path style="fill:#a47a61; stroke:none;" d="M244 300L236 308L232 317C224.718 318.236 224.054 328.302 219 333L220 336L205.832 334.397L202 324C202 326.449 202.575 332.503 199 330C193.586 341.029 177.116 343.868 172.657 328.999C171.235 324.256 175.852 318.095 176 313L172 313L166.606 320.209L167 336C154.24 335.301 156.835 321.7 147.722 316.028C143.087 313.142 136.968 316.706 132 314.842C126.684 312.847 118.351 306.289 114 313C121.114 311.685 123.578 314.394 130 316.437C134.109 317.743 138.889 315.95 142.852 317.742C148.318 320.215 146.09 331.423 145 336L141 334L147 356L148 356L148 348L149 348C152.8 359.152 162.175 358 172 358L233 358C233.507 346.18 236.699 333.396 240.362 322.17C242.363 316.037 246.249 306.269 244 300z"/>
<path style="fill:#d5c7be; stroke:none;" d="M22 305L19 306L19 308L30 315C25.1299 314.79 15.6126 310.658 11.3179 313.117C1.35723 318.82 10.0635 338.343 13 345L97 345C91.9404 335.738 83.6453 326.328 74 322L70 329C70 323.778 70.9224 318.106 66 315L65 319C56.4105 309.176 47.062 306.804 35 302.965C30.8903 301.656 22.3427 298.468 22 305z"/>
<path style="fill:#9f9188; stroke:none;" d="M99 308L99 313L106 316L102 310L108 314L121 310L121 309L118 308L118 307L121 307L121 303L116 304C114.885 298.822 104.057 308 99 308z"/>
<path style="fill:#503635; stroke:none;" d="M370 301C371.096 305.625 374.546 309.181 374.942 314C375.408 319.663 372.753 331.027 375.219 335.7C378.472 341.865 387.917 343.386 394 344.87C411.464 349.133 426.167 351.049 444 351C441.795 343.546 431.22 338.056 425.17 333.615C408.506 321.383 391.815 301 370 301z"/>
<path style="fill:#c0896a; stroke:none;" d="M139 314L139 315C155.159 315.057 152.077 335.639 167 336L166.642 321.104L172 313L176 313L176 317C178.564 310.414 172.561 304.114 165.985 304.033C156.262 303.914 149.068 312.718 139 314z"/>
<path style="fill:#ad927d; stroke:none;" d="M471 304L471 308L472 308L472 305L486 305L471 304z"/>
<path style="fill:#d8d3b3; stroke:none;" d="M472 305C473.961 311.99 485.777 325.986 493 328C493.036 323.618 494.716 318.435 493.693 314.174C491.34 304.374 479.605 305 472 305z"/>
<path style="fill:#baa087; stroke:none;" d="M486 306L486 307C491.553 310.309 493.924 313.506 494 320L495 320C494.994 312.802 493.72 307.853 486 306z"/>
<path style="fill:#625149; stroke:none;" d="M555 307L555 325L557 325L557 307L555 307z"/>
<path style="fill:#7c6e6b; stroke:none;" d="M102 310C105.539 317.342 114.925 316.788 122 319L113 313L108 314L102 310z"/>
<path style="fill:#483e46; stroke:none;" d="M112 314L112 315C121.285 315.224 129.492 323.709 130 333C135.921 331.307 138.257 324.712 139 319C128.531 317.95 123.022 309.349 112 314z"/>
<path style="fill:#735c56; stroke:none;" d="M132 317L132 318L139 319L137 326L145 336C149.033 322.357 145.4 317 132 317z"/>
<path style="fill:#9f8c7d; stroke:none;" d="M0 320L0 324L6 320L0 320z"/>
<path style="fill:#b4a19a; stroke:none;" d="M124 321C127.816 334.281 131.175 345 113 345L113 346L145 346C142.639 334.71 140.437 332.187 130 335C129.983 329.141 129.435 324.207 124 321z"/>
<path style="fill:#9f8e87; stroke:none;" d="M574 321L571 349L568 348L565 358L571 358L572 345L575 345L575 340L577 340L577 345L579 345L576 321L574 321z"/>
<path style="fill:#776561; stroke:none;" d="M358 324L354 358L450 358C444.686 348.499 436.288 354.557 428 353.696C413.422 352.182 391.038 349.381 378.13 342.407C369.72 337.863 368.462 326.737 358 324z"/>
<path style="fill:#83777b; stroke:none;" d="M136 326L130 335L140 334C141.639 329.937 140.068 327.235 136 326z"/>
<path style="fill:#817871; stroke:none;" d="M296 351L296 358L320 358L320 356L315 356L315 355L317 354L313 348L321 341L319 328C298.194 323.046 308.397 344.192 296 351z"/>
<path style="fill:#695b58; stroke:none;" d="M523 336L523 345L528 341L525 337L529 337L523 336z"/>
<path style="fill:#998a83; stroke:none;" d="M586 336L586 345L587 345L588 336L586 336z"/>
<path style="fill:#a19589; stroke:none;" d="M616 336L616 345L618 345L618 340L621 340L621 345L623 345C622.825 339.745 620.734 337.963 616 336z"/>
<path style="fill:#7d6c64; stroke:none;" d="M567 337C561.492 339.99 557.538 344.689 567 345L565 356L568 348L571 349L573 338L567 337z"/>
<path style="fill:#736564; stroke:none;" d="M520 338L519 342L517 339L516 339L516 349L522 338L520 338z"/>
<path style="fill:#716362; stroke:none;" d="M530 338L530 340L534 340L534 341L529 345L535 345C534.863 340.824 534.362 338.728 530 338z"/>
<path style="fill:#625350; stroke:none;" d="M537 338L537 345L539 345L539 340L541 340L541 345L543 345C542.845 340.276 541.89 338.381 537 338z"/>
<path style="fill:#6f615e; stroke:none;" d="M545 338L548 343L545 346L550 342L546 341L546 340L549 338L545 338z"/>
<path style="fill:#9b8d84; stroke:none;" d="M590 338L591 346L596 345L596 338L595 338L594 344L591 344L590 338z"/>
<path style="fill:#a19386; stroke:none;" d="M615 346L612 344L615 338C608.941 339.011 609.581 344.355 615 346z"/>
<path style="fill:#9d938a; stroke:none;" d="M625 338L628 340L628 341C624.964 342 624.506 342.863 625 346L630 345C629.863 340.824 629.362 338.728 625 338z"/>
<path style="fill:#a1978d; stroke:none;" d="M631 338L631 346L633 346L633 340L636 340L636 345L638 345C637.826 339.69 636.31 338.174 631 338z"/>
<path style="fill:#78564c; stroke:none;" d="M508 340L507 358L513 358L510 340L508 340z"/>
<path style="fill:#51433a; stroke:none;" d="M562 340L562 344L565 344L565 340L562 340z"/>
<path style="fill:#5d4c3c; stroke:none;" d="M0 346L0 347C11.198 348.324 25.8021 344.431 36 350L40 350L41 350C46.8326 345.514 56.3844 347.142 63 349C71.0239 342.921 95.1633 346.945 105 347.829C109.196 348.207 113.444 346.522 117 349C122.476 347.264 129.451 345.198 133 351L134 351L134 348L147 347C135.544 342.193 115.468 346 103 346L0 346z"/>
<path style="fill:#4b2f07; stroke:none;" d="M0 347L0 356L19 356L19 355L4 352L1 355L0 347z"/>
<path style="fill:#927442; stroke:none;" d="M2 347L2 348L8 348L2 347z"/>
<path style="fill:#3a1c00; stroke:none;" d="M12 347L12 352L14 352L14 347L12 347z"/>
<path style="fill:#8a6e3f; stroke:none;" d="M15 347L15 348L19 348L15 347z"/>
<path style="fill:#241f19; stroke:none;" d="M19 347L19 356L25 356L25 347L19 347z"/>
<path style="fill:#2c2014; stroke:none;" d="M47 347L47 356L58 356L57 350L55 350L55 355L52 355L51 347L47 347z"/>
<path style="fill:#937748; stroke:none;" d="M52 347L52 348L58 348L52 347z"/>
<path style="fill:#917744; stroke:none;" d="M63 347L63 348L85 348L63 347z"/>
<path style="fill:#261c1b; stroke:none;" d="M86 347L87 356L104 356L103 347L95 347C98.2023 355.466 91.6049 355.472 92 347L86 347z"/>
<path style="fill:#8d7247; stroke:none;" d="M112 347L112 348L116 348L112 347z"/>
<path style="fill:#67441c; stroke:none;" d="M116 347L118 355L104 355L104 356L143 356L143 355L132 353L131 353L130 353L128 355L130 347L123 355L123 350L122 350L122 355L119 355L116 347z"/>
<path style="fill:#8f7640; stroke:none;" d="M121 347L121 348L128 348L121 347z"/>
<path style="fill:#2f1f12; stroke:none;" d="M143 347L143 356L147 356L147 347L143 347z"/>
<path style="fill:#ac8655; stroke:none;" d="M1 348C1 350.619 2.65694 358.388 4 352L3 352L3 354L2 354L1 348z"/>
<path style="fill:#ffd675; stroke:none;" d="M2 348L2 354L3 354L3 349L7 349L7 355L19 355L19 348L15 348L15 352L12 352L12 348L10 348L10 352L8 352L8 348L2 348z"/>
<path style="fill:#bf8730; stroke:none;" d="M8 348L8 352L10 352L10 348L8 348z"/>
<path style="fill:#a2834c; stroke:none;" d="M14 348L14 352L15 352L14 348z"/>
<path style="fill:#694910; stroke:none;" d="M19 348L19 355L20 355L19 348z"/>
<path style="fill:#fcd570; stroke:none;" d="M24 348C24.0198 352.706 29.6494 358.86 31 352L37 352L38 352L39 352L46 354L46 348L42 348L42 353L40 353L40 348L36 353L34 353L34 348L33 348L32 350L24 348z"/>
<path style="fill:#b68e36; stroke:none;" d="M31 348L31 350L33 350L33 348L31 348z"/>
<path style="fill:#cda949; stroke:none;" d="M34 348L36 353L34 348z"/>
<path style="fill:#b99038; stroke:none;" d="M41 348L40 353L41 348z"/>
<path style="fill:#d4b469; stroke:none;" d="M46 348L45 355L46 348z"/>
<path style="fill:#a2855b; stroke:none;" d="M51.3333 348.667L51.6667 349.333L51.3333 348.667z"/>
<path style="fill:#f5d170; stroke:none;" d="M52 348L53 355L55 355L55 349L58 354L64 354L64 349L66 349L66 354L67 354L67 350L69 350L69 354L71 354L71 350L74 350L74 354L76 354L76 350L78 350L78 354L86 354L87 348L52 348z"/>
<path style="fill:#ffdb69; stroke:none;" d="M92 348L92 354L97 354L96 348L92 348z"/>
<path style="fill:#ffdb64; stroke:none;" d="M103 348L103 354C108.276 353.117 108.238 348.91 103 348z"/>
<path style="fill:#c49b4b; stroke:none;" d="M107 348L110 355L107 348z"/>
<path style="fill:#f8dc61; stroke:none;" d="M109 348L109 354L117 354L116 348L109 348z"/>
<path style="fill:#ffe07e; stroke:none;" d="M118 348L119 355L121 355L121 350L123 350L123 355L128 348L118 348z"/>
<path style="fill:#ffd26a; stroke:none;" d="M128 354L130 352L131 352L132 352L144 354L144 348L135 348L135 353L133 353L133 348L128 354z"/>
<path style="fill:#d8a343; stroke:none;" d="M134 348L133 353L134 348z"/>
<path style="fill:#ad883a; stroke:none;" d="M136.667 348.333L137.333 348.667L136.667 348.333z"/>
<path style="fill:#c6bbb7; stroke:none;" d="M148 348C147.832 362.232 124.484 357 114 357L114 358L156 358L148 348z"/>
<path style="fill:#f7c154; stroke:none;" d="M3 349L6 354L7 354L7 349L3 349z"/>
<path style="fill:#927950; stroke:none;" d="M23 349L23 353L24 353L23 349z"/>
<path style="fill:#bf9348; stroke:none;" d="M55.6667 349.333L56.3333 349.667L55.6667 349.333z"/>
<path style="fill:#dbac5c; stroke:none;" d="M64 349L67 355L64 349z"/>
<path style="fill:#b09d63; stroke:none;" d="M102 349L102 353L103 353L102 349z"/>
<path style="fill:#d29f44; stroke:none;" d="M25.3333 350.667L25.6667 351.333L25.3333 350.667z"/>
<path style="fill:#935c02; stroke:none;" d="M26.3333 350.667L26.6667 351.333L26.3333 350.667z"/>
<path style="fill:#836930; stroke:none;" d="M52 350L52 355L53 355L52 350z"/>
<path style="fill:#533417; stroke:none;" d="M64 350L64 355L58 355L58 356L87 356L87 355L74 355L74 350L71 350L71 355L69 355L69 351L68 351L65 355L64 350z"/>
<path style="fill:#9a691c; stroke:none;" d="M67 350L67 354L68 354L69 350L67 350z"/>
<path style="fill:#8f5f0a; stroke:none;" d="M76 350L76 355L77 355L76 350z"/>
<path style="fill:#c9a25f; stroke:none;" d="M77 350L77 355L87 353L78 354L77 350z"/>
<path style="fill:#e5a140; stroke:none;" d="M81 350L79 352L79 353L83 350L81 350z"/>
<path style="fill:#8c6e30; stroke:none;" d="M121 350L121 355L122 355L121 350z"/>
<path style="fill:#957a43; stroke:none;" d="M57 351L57 354L58 354L57 351z"/>
<path style="fill:#916f27; stroke:none;" d="M86.3333 351.667L86.6667 352.333L86.3333 351.667z"/>
<path style="fill:#ad966a; stroke:none;" d="M91 351L91 354L92 354L91 351z"/>
<path style="fill:#856534; stroke:none;" d="M97 351L97 354L98 354L97 351z"/>
<path style="fill:#bf9654; stroke:none;" d="M31 352C31.7292 355.403 33.8058 354.987 37 355L37 354L31 352z"/>
<path style="fill:#ba8e35; stroke:none;" d="M37.6667 352.333L38.3333 352.667L37.6667 352.333z"/>
<path style="fill:#92682e; stroke:none;" d="M43 352L45 355L43 352z"/>
<path style="fill:#bf933c; stroke:none;" d="M130.667 352.333L131.333 352.667L130.667 352.333z"/>
<path style="fill:#62441e; stroke:none;" d="M37 353L25 355L25 356L47 356L47 355L39 353L37 353z"/>
<path style="fill:#c6a15d; stroke:none;" d="M117 353L112 354L112 355L117 353z"/>
<path style="fill:#caa360; stroke:none;" d="M39 354L39 355L43 355L39 354z"/>
<path style="fill:#9f763e; stroke:none;" d="M58 354L58 355L64 355L58 354z"/>
<path style="fill:#b29671; stroke:none;" d="M69.6667 354.333L70.3333 354.667L69.6667 354.333z"/>
<path style="fill:#b98e5b; stroke:none;" d="M74.6667 354.333L75.3333 354.667L74.6667 354.333z"/>
<path style="fill:#a28052; stroke:none;" d="M92 354L92 355L97 355L92 354z"/>
<path style="fill:#b99b5f; stroke:none;" d="M103 354L103 355L107 355L103 354z"/>
<path style="fill:#a98a5e; stroke:none;" d="M128.667 354.333L129.333 354.667L128.667 354.333z"/>
<path style="fill:#ae8649; stroke:none;" d="M132 354L132 355L143 355L132 354z"/>
<path style="fill:#9e8e81; stroke:none;" d="M0 356L0 357L147 357C135.544 352.193 115.468 356 103 356L0 356z"/>
<path style="fill:#dacacb; stroke:none;" d="M0 357L0 358L114 358L79 357L0 357z"/>
</svg>
